<svg width="298" height="40" viewBox="0 0 298 40" fill="none" xmlns="http://www.w3.org/2000/svg">
  <path fill-rule="evenodd" clip-rule="evenodd" d="M5.57866 13.2303L5.58519 26.822L17.3587 33.6135L29.0887 26.7893L29.0604 13.2346L17.2869 6.44529L5.57866 13.2303ZM0.00217746 30.0142L0 10.012L17.313 0L34.6282 9.98802L34.6304 29.988L17.3174 40L0.00217746 30.0142Z" fill="#C4C4C4"/>
  <path d="M48.6733 28V9.852H52.5993V24.802H60.3993V28H48.6733ZM69.6711 28.312C67.2444 28.312 65.4504 27.4887 64.2891 25.842C63.1451 24.1953 62.5731 21.89 62.5731 18.926C62.5731 15.962 63.1451 13.6567 64.2891 12.01C65.4504 10.3633 67.2444 9.54 69.6711 9.54C72.0978 9.54 73.8831 10.3633 75.0271 12.01C76.1884 13.6567 76.7691 15.962 76.7691 18.926C76.7691 21.89 76.1884 24.1953 75.0271 25.842C73.8831 27.4887 72.0978 28.312 69.6711 28.312ZM69.6711 25.166C70.7804 25.166 71.5431 24.7587 71.9591 23.944C72.3924 23.112 72.6091 21.9593 72.6091 20.486V17.34C72.6091 15.884 72.3924 14.7487 71.9591 13.934C71.5431 13.102 70.7804 12.686 69.6711 12.686C68.5618 12.686 67.7904 13.102 67.3571 13.934C66.9411 14.7487 66.7331 15.884 66.7331 17.34V20.512C66.7331 21.968 66.9411 23.112 67.3571 23.944C67.7904 24.7587 68.5618 25.166 69.6711 25.166ZM88.1469 25.426H87.9129C87.7569 25.8073 87.5663 26.1713 87.3409 26.518C87.1156 26.8647 86.8383 27.1767 86.5089 27.454C86.1796 27.714 85.7896 27.922 85.3389 28.078C84.9056 28.234 84.4116 28.312 83.8569 28.312C82.9729 28.312 82.1843 28.104 81.4909 27.688C80.8149 27.272 80.2429 26.6653 79.7749 25.868C79.3069 25.0707 78.9516 24.1 78.7089 22.956C78.4836 21.812 78.3709 20.5207 78.3709 19.082C78.3709 15.9967 78.9343 13.6393 80.0609 12.01C81.1876 10.3633 82.9296 9.54 85.2869 9.54C86.2229 9.54 87.0463 9.67 87.7569 9.93C88.4676 10.1727 89.0743 10.528 89.5769 10.996C90.0969 11.4467 90.5216 11.9927 90.8509 12.634C91.1803 13.2753 91.4403 13.986 91.6309 14.766L87.9909 15.65C87.8869 15.2687 87.7656 14.9047 87.6269 14.558C87.5056 14.194 87.3409 13.8733 87.1329 13.596C86.9249 13.3187 86.6649 13.102 86.3529 12.946C86.0409 12.7727 85.6596 12.686 85.2089 12.686C84.2209 12.686 83.5189 13.0933 83.1029 13.908C82.7043 14.7227 82.5049 15.8667 82.5049 17.34V20.304C82.5049 21.7773 82.7216 22.956 83.1549 23.84C83.6056 24.724 84.3943 25.166 85.5209 25.166C86.4049 25.166 87.0636 24.906 87.4969 24.386C87.9303 23.866 88.1469 23.1987 88.1469 22.384V21.058H85.0529V18.302H91.6309V28H88.1469V25.426ZM100.851 28.312C98.4241 28.312 96.6301 27.4887 95.4688 25.842C94.3248 24.1953 93.7528 21.89 93.7528 18.926C93.7528 15.962 94.3248 13.6567 95.4688 12.01C96.6301 10.3633 98.4241 9.54 100.851 9.54C103.277 9.54 105.063 10.3633 106.207 12.01C107.368 13.6567 107.949 15.962 107.949 18.926C107.949 21.89 107.368 24.1953 106.207 25.842C105.063 27.4887 103.277 28.312 100.851 28.312ZM100.851 25.166C101.96 25.166 102.723 24.7587 103.139 23.944C103.572 23.112 103.789 21.9593 103.789 20.486V17.34C103.789 15.884 103.572 14.7487 103.139 13.934C102.723 13.102 101.96 12.686 100.851 12.686C99.7414 12.686 98.9701 13.102 98.5368 13.934C98.1208 14.7487 97.9128 15.884 97.9128 17.34V20.512C97.9128 21.968 98.1208 23.112 98.5368 23.944C98.9701 24.7587 99.7414 25.166 100.851 25.166ZM126.206 28V9.852H133.226C134.11 9.852 134.899 9.99067 135.592 10.268C136.286 10.528 136.866 10.9093 137.334 11.412C137.82 11.9147 138.184 12.5213 138.426 13.232C138.669 13.9427 138.79 14.74 138.79 15.624C138.79 16.508 138.669 17.3053 138.426 18.016C138.184 18.7267 137.82 19.3333 137.334 19.836C136.866 20.3387 136.286 20.7287 135.592 21.006C134.899 21.266 134.11 21.396 133.226 21.396H130.132V28H126.206ZM130.132 18.25H132.238C133.157 18.25 133.79 18.0767 134.136 17.73C134.5 17.3833 134.682 16.8113 134.682 16.014V15.234C134.682 14.4367 134.5 13.8647 134.136 13.518C133.79 13.1713 133.157 12.998 132.238 12.998H130.132V18.25ZM142.212 28V9.852H146.138V24.802H153.938V28H142.212ZM166.72 28L165.576 23.632H160.61L159.492 28H155.54L160.454 9.852H165.966L170.88 28H166.72ZM163.21 13.622H163.002L161.234 20.486H164.978L163.21 13.622ZM179.216 28.312C176.789 28.312 174.987 27.4973 173.808 25.868C172.647 24.2213 172.066 21.9073 172.066 18.926C172.066 15.9447 172.647 13.6393 173.808 12.01C174.987 10.3633 176.789 9.54 179.216 9.54C180.152 9.54 180.975 9.67 181.686 9.93C182.414 10.1727 183.038 10.5193 183.558 10.97C184.078 11.4207 184.503 11.9667 184.832 12.608C185.179 13.2493 185.447 13.9687 185.638 14.766L181.998 15.65C181.894 15.2167 181.773 14.818 181.634 14.454C181.495 14.09 181.313 13.778 181.088 13.518C180.88 13.258 180.611 13.0587 180.282 12.92C179.97 12.764 179.589 12.686 179.138 12.686C178.081 12.686 177.327 13.102 176.876 13.934C176.443 14.7487 176.226 15.884 176.226 17.34V20.512C176.226 21.968 176.443 23.112 176.876 23.944C177.327 24.7587 178.081 25.166 179.138 25.166C180.039 25.166 180.689 24.8887 181.088 24.334C181.504 23.7793 181.807 23.0687 181.998 22.202L185.638 23.086C185.447 23.8833 185.179 24.6027 184.832 25.244C184.503 25.8853 184.078 26.44 183.558 26.908C183.038 27.3587 182.414 27.7053 181.686 27.948C180.975 28.1907 180.152 28.312 179.216 28.312ZM188.67 28V9.852H200.266V13.05H192.57V17.21H200.006V20.408H192.57V24.802H200.266V28H188.67ZM212.268 20.408H207.692V28H203.766V9.852H207.692V17.21H212.268V9.852H216.194V28H212.268V20.408ZM225.57 28.312C223.143 28.312 221.349 27.4887 220.188 25.842C219.044 24.1953 218.472 21.89 218.472 18.926C218.472 15.962 219.044 13.6567 220.188 12.01C221.349 10.3633 223.143 9.54 225.57 9.54C227.996 9.54 229.782 10.3633 230.926 12.01C232.087 13.6567 232.668 15.962 232.668 18.926C232.668 21.89 232.087 24.1953 230.926 25.842C229.782 27.4887 227.996 28.312 225.57 28.312ZM225.57 25.166C226.679 25.166 227.442 24.7587 227.858 23.944C228.291 23.112 228.508 21.9593 228.508 20.486V17.34C228.508 15.884 228.291 14.7487 227.858 13.934C227.442 13.102 226.679 12.686 225.57 12.686C224.46 12.686 223.689 13.102 223.256 13.934C222.84 14.7487 222.632 15.884 222.632 17.34V20.512C222.632 21.968 222.84 23.112 223.256 23.944C223.689 24.7587 224.46 25.166 225.57 25.166ZM235.751 28V9.852H239.677V24.802H247.477V28H235.751ZM250.613 9.852H256.463C258.907 9.852 260.719 10.632 261.897 12.192C263.076 13.752 263.665 15.9967 263.665 18.926C263.665 21.8553 263.076 24.1 261.897 25.66C260.719 27.22 258.907 28 256.463 28H250.613V9.852ZM256.203 24.932C257.365 24.932 258.214 24.5593 258.751 23.814C259.289 23.0687 259.557 21.9853 259.557 20.564V17.262C259.557 15.858 259.289 14.7833 258.751 14.038C258.214 13.2927 257.365 12.92 256.203 12.92H254.461V24.932H256.203ZM266.619 28V9.852H278.215V13.05H270.519V17.21H277.955V20.408H270.519V24.802H278.215V28H266.619ZM285.953 28H282.105V9.852H289.125C290.009 9.852 290.798 9.99067 291.491 10.268C292.184 10.528 292.765 10.9093 293.233 11.412C293.718 11.9147 294.082 12.5213 294.325 13.232C294.568 13.9427 294.689 14.74 294.689 15.624C294.689 16.9067 294.412 18.0073 293.857 18.926C293.302 19.8447 292.514 20.4513 291.491 20.746L295.053 28H290.789L287.747 21.266H285.953V28ZM288.189 18.25C289.108 18.25 289.74 18.0767 290.087 17.73C290.451 17.3833 290.633 16.8113 290.633 16.014V15.234C290.633 14.4367 290.451 13.8647 290.087 13.518C289.74 13.1713 289.108 12.998 288.189 12.998H285.953V18.25H288.189Z" fill="#CCCCCC"/>
</svg>
