<svg width="237" height="40" viewBox="0 0 237 40" fill="none" xmlns="http://www.w3.org/2000/svg">
<g clip-path="url(#clip0_126_312)">
<path d="M5.14532 27.0572V12.9733L17.3391 5.90964L29.5242 13.0365V27.1181L17.3565 34.1513L5.14532 27.0572Z" fill="#FF00FF"/>
<path d="M5.14532 12.9733L17.239 19.9412L17.3565 34.1513L5.14532 27.0572V12.9733Z" fill="#29ABE2"/>
<path opacity="0.6" d="M17.239 19.9412L29.5242 13.0365V27.1181L17.3565 34.1513L17.239 19.9412Z" fill="#F2F2F2"/>
<path fill-rule="evenodd" clip-rule="evenodd" d="M5.57866 13.2303L5.58519 26.822L17.3587 33.6135L29.0887 26.7893L29.0604 13.2346L17.2869 6.44529L5.57866 13.2303ZM17.313 1.33261L1.11486 10.6565L1.13228 29.3849L3.35765 28.1045L3.34458 11.9456L17.3391 3.865L31.3076 11.9216L33.5329 10.6413L17.3348 1.29559L17.313 1.33261ZM0.00217746 30.0142L0 10.012L17.313 0L34.6282 9.98802L34.6304 29.988L17.3174 40L0.00217746 30.0142Z" fill="black"/>
<path d="M62.0947 24.1197H61.7311L56.6968 9.86389H50.5237V30.1949H55.1464V18.2929C55.153 18.2885 55.5449 17.9684 55.9412 18.9983L60.0348 30.197H63.7866L67.8563 19.068C68.2635 17.951 68.675 18.3016 68.675 18.3016V30.197H73.2978V9.86607H67.1268L62.0947 24.1197Z" fill="black"/>
<path d="M75.3816 30.1949H92.4943V26.2254H81.0191C80.8166 26.208 80.1982 26.0947 80.1982 25.3958V21.7485H92.4812V18.2646H80.196V14.6456C80.196 13.8117 81.0844 13.8117 81.0844 13.8117H81.0822H92.4899V9.86609H75.3773V30.1949H75.3816Z" fill="black"/>
<path d="M154.622 30.1949H171.734V26.2254H160.257C160.057 26.208 159.453 26.0947 159.438 25.4197V21.7485H171.734V18.2646H159.438V14.6238C159.456 13.8138 160.324 13.8117 160.324 13.8117H160.322H171.732V9.86609H154.622V30.1949Z" fill="black"/>
<path d="M192.801 17.1497C192.801 12.405 189.921 9.86389 184.475 9.86389H173.801V30.1949H178.617V24.9689L178.622 24.9733C178.622 24.2874 179.216 24.1676 179.43 24.1459H184.669L188.009 30.197H193.309L189.339 23.1791C191.421 22.0403 192.801 19.9826 192.801 17.1497ZM184.209 20.442H178.617V14.7327L178.622 14.7371C178.622 14.0316 179.253 13.9227 179.449 13.9074H184.209C186.654 13.9074 188.009 15.0201 188.009 17.1758C188.009 19.3293 186.654 20.442 184.209 20.442Z" fill="black"/>
<path d="M204.59 18.3124L202.389 17.9249C200.307 17.5373 199.314 16.7643 199.314 15.5296C199.314 13.9553 200.767 13.0125 203.525 13.0125C206.576 13.0125 208.002 14.2471 208.318 16.0871H212.651C212.603 11.0528 208.923 9.18887 203.623 9.18887C197.936 9.18887 194.691 11.4643 194.691 15.3119C194.691 19.7409 198.515 20.7577 202.365 21.4349L204.882 21.8704C207.303 22.282 208.44 22.9831 208.44 24.3876C208.44 25.9858 206.722 27.0506 203.575 27.0506C200.235 27.0266 198.661 25.816 198.493 23.9042H194.136C194.112 28.6728 197.381 30.8742 203.575 30.8742C209.916 30.8742 213.233 28.5748 213.233 24.5334C213.23 19.6668 208.462 19.0136 204.59 18.3124Z" fill="black"/>
<path d="M225.661 9.18671C219.029 9.18671 214.504 13.6396 214.504 20.0305C214.504 26.4213 219.031 30.8742 225.661 30.8742C232.318 30.8742 236.843 26.4213 236.843 20.0305C236.843 13.6396 232.316 9.18671 225.661 9.18671ZM225.661 26.687C222.055 26.687 219.273 24.0239 219.273 20.0305C219.273 16.037 222.055 13.374 225.661 13.374C229.291 13.374 232.05 16.037 232.05 20.0305C232.05 24.0239 229.291 26.687 225.661 26.687Z" fill="black"/>
<path d="M107.85 13.9075H114.626V9.86609H94.5629V13.9075H101.322C101.489 13.9183 102.125 14.012 102.162 14.6848V30.1971H107.003V14.7284C107.009 14.012 107.678 13.9183 107.85 13.9075Z" fill="black"/>
<path d="M127.41 11.8497C127.41 11.8497 127.41 11.8519 127.41 11.8497C126.637 9.86389 125.372 9.86389 125.372 9.86389H121.132C121.132 9.86389 119.865 9.86389 119.094 11.8497L111.974 30.1927H116.984L122.617 15.288C122.646 15.2139 122.674 15.1551 122.7 15.0942C122.741 15.0397 122.966 14.7697 123.24 14.7697C123.521 14.7697 123.771 15.0528 123.811 15.0985C123.826 15.1334 123.843 15.1704 123.858 15.2096L129.522 30.1949H134.508L127.41 11.8497Z" fill="black"/>
<path d="M137.115 28.209C137.115 28.209 137.117 28.209 137.115 28.209C137.888 30.1949 139.153 30.1949 139.153 30.1949H143.393C143.393 30.1949 144.66 30.1949 145.431 28.209L152.551 9.86607H147.541L141.907 24.7708C141.879 24.8448 141.851 24.9036 141.825 24.9646C141.783 25.019 141.559 25.289 141.285 25.289C141.004 25.289 140.753 25.006 140.714 24.9602C140.699 24.9254 140.682 24.8884 140.666 24.8492L135.003 9.86389H130.016L137.115 28.209Z" fill="black"/>
</g>
<defs>
<clipPath id="clip0_126_312">
<rect width="236.843" height="40" fill="white"/>
</clipPath>
</defs>
</svg>
