<svg width="26" height="26" viewBox="0 0 26 26" fill="none" xmlns="http://www.w3.org/2000/svg">
  <path d="M9.20837 26C10.1058 26 10.8334 25.2725 10.8334 24.375C10.8334 23.4775 10.1058 22.75 9.20837 22.75C8.31091 22.75 7.58337 23.4775 7.58337 24.375C7.58337 25.2725 8.31091 26 9.20837 26Z" fill="#FF00FF"/>
  <path d="M21.125 26C22.0225 26 22.75 25.2725 22.75 24.375C22.75 23.4775 22.0225 22.75 21.125 22.75C20.2275 22.75 19.5 23.4775 19.5 24.375C19.5 25.2725 20.2275 26 21.125 26Z" fill="#FF00FF"/>
  <path d="M4.42758 2.87929C4.38731 2.67843 4.2785 2.49768 4.11966 2.36776C3.96082 2.23784 3.76174 2.16678 3.55629 2.16666H0V3.93938H2.82725L6.24128 20.954C6.28155 21.1549 6.39036 21.3356 6.5492 21.4656C6.70804 21.5955 6.90711 21.6665 7.11257 21.6667H23.1159V19.8939H7.84161L7.13035 16.3485H23.1159C23.3181 16.3484 23.5143 16.2797 23.6721 16.1535C23.8298 16.0273 23.9397 15.8513 23.9836 15.6545L26 6.59847H24.1801L22.4028 14.5757H6.77472L4.42758 2.87929Z" fill="#FF00FF"/>
  <path d="M16.0334 5.63332V2.16666H14.3V5.63332H10.8334V7.36666H14.3V10.8333H16.0334V7.36666H19.5V5.63332H16.0334Z" fill="#FF00FF"/>
</svg>
