<svg width="13" height="10" viewBox="0 0 13 10" fill="none" xmlns="http://www.w3.org/2000/svg">
<path d="M0.464286 0H12.5357C12.7925 0 13 0.203125 13 0.454545V9.54545C13 9.79688 12.7925 10 12.5357 10H0.464286C0.207478 10 0 9.79688 0 9.54545V0.454545C0 0.203125 0.207478 0 0.464286 0ZM1.63661 1.54688L6.21417 5.03409C6.32734 5.12074 6.48549 5.12074 6.59866 5.03409L11.1777 1.54688C11.1949 1.53383 11.2076 1.51583 11.2139 1.49539C11.2202 1.47495 11.2198 1.4531 11.2127 1.43289C11.2057 1.41269 11.1924 1.39515 11.1746 1.38273C11.1569 1.37031 11.1356 1.36363 11.1138 1.36364H1.70045C1.67864 1.36363 1.65738 1.37031 1.63965 1.38273C1.62192 1.39515 1.6086 1.41269 1.60156 1.43289C1.59452 1.4531 1.59412 1.47495 1.6004 1.49539C1.60669 1.51583 1.61935 1.53383 1.63661 1.54688Z" fill="black"/>
</svg>
