<svg width="26" height="26" viewBox="0 0 26 26" fill="none" xmlns="http://www.w3.org/2000/svg">
<path d="M12.9987 13C15.9902 13 18.4154 10.5749 18.4154 7.58332C18.4154 4.59178 15.9902 2.16666 12.9987 2.16666C10.0072 2.16666 7.58203 4.59178 7.58203 7.58332C7.58203 10.5749 10.0072 13 12.9987 13Z" stroke="black" stroke-width="2"/>
<path d="M18.4161 15.1667H18.7974C19.5894 15.1669 20.3541 15.4563 20.9477 15.9805C21.5414 16.5048 21.9232 17.2278 22.0214 18.0137L22.445 21.398C22.4831 21.7029 22.4559 22.0124 22.3653 22.3059C22.2746 22.5995 22.1225 22.8705 21.9192 23.1008C21.7158 23.3311 21.4658 23.5155 21.1857 23.6418C20.9056 23.7681 20.6018 23.8334 20.2946 23.8333H5.70425C5.397 23.8334 5.09324 23.7681 4.81315 23.6418C4.53305 23.5155 4.28302 23.3311 4.07965 23.1008C3.87628 22.8705 3.72423 22.5995 3.63357 22.3059C3.54291 22.0124 3.51573 21.7029 3.55383 21.398L3.97633 18.0137C4.07459 17.2274 4.4567 16.5041 5.05082 15.9798C5.64493 15.4555 6.41012 15.1664 7.2025 15.1667H7.58275" stroke="black" stroke-width="2" stroke-linecap="round" stroke-linejoin="round"/>
</svg>
